<?xml version="1.0" encoding="utf-8"?>
<svg version="1.1" id="BLOCK101786" xmlns="http://www.w3.org/2000/svg" xmlns:xlink="http://www.w3.org/1999/xlink" x="0px"
	 y="0px" viewBox="0 0 1171 405" style="enable-background:new 0 0 1171 405;" xml:space="preserve">
<path d="M192.3,248.5c-0.1-5.6,0-11.3,0.1-16.9c0.2-12.6,0.7-25.2,1.6-37.7c0.9-11.4,2.3-23.1,4.5-34.4c1.4-7.4,2.7-15.3,7.2-21.5
	c1.3-1.8,5.2-6.8,8-5.7c2.3,0.9,2,5.5,1.9,7.4c-0.3,4.8-1.2,9.5-2.4,14.1c-0.9,3.1-1.7,6.3-2.3,9.5c-3.8,21.3-6.4,43.2-7.9,64.8
	c-0.3,5.1-0.6,10.2-0.4,15.2c0,0,43.8-27.2,97.5-51.4s134-51.1,127.9-74.2c-6.1-23.1-145.7-45.8-259.6-51.4c-20-1-40-2-59.9-3.2
	c-12.7-0.7-25.4-1.5-38.2-2.2c-7.5-0.4-14.9-0.8-22.4-0.6c-5.2,0.1-10.4,0.4-15.3,2.2c-2.8,1-10.2,5.8-11.3,0.4
	c-0.4-1.9-0.1-3.7,0.4-5.6c0.4-1.7,0.7-3.8,1.4-5.4c1.1-2.6,5.2-1.8,7.4-2c4.9-0.4,9.8-0.4,14.6-0.3c11.1,0.2,22.2,0.8,33.3,1.5
	c13.8,0.9,27.6,1.5,41.4,2.1c16.9,0.8,33.8,1.5,50.7,2.4c18.4,0.9,36.8,2,55.2,3.4c18.4,1.4,36.7,3,55,5.1
	c16.8,1.9,33.6,4.3,50.2,7.5c21.5,4.2,42.9,9.8,63.9,16c12,3.6,24.5,7,34.9,14.3c11.3,8,12.4,23.1,4.5,33.7
	c-6.6,8.9-16.9,14.9-26.5,20.1c-16.1,8.7-33.1,15.6-50.1,22.5c-4.8,1.9-9.5,3.8-14.3,5.7c-17,6.8-33.7,14.4-50.1,22.4
	c-16.6,8.1-32.9,16.7-48.9,25.8c-13,7.4-25.9,15-38.2,23.5c-4.1,2.8-8.1,5.7-11.8,8.9c-5.2,4.4-8.6,9.5-5.9,16.3
	c1.2,3,3.1,5.6,5.2,8c7.2,8.1,16.8,14.1,26.2,19.3c20.1,11.2,41.6,19.3,63.2,27.1c20.5,7.5,41.2,14.8,61.8,22.1
	c22.2,8.1,44.7,15.9,67,23.7c6.5,2.3,12.9,4.6,19.4,6.8c1.5,0.5,3,1,4.5,1.6c0,0-93.1-16.9-196.2-59S183.9,256.9,192.3,248.5z"/>
<path d="M481.8,209.3c1-3.7,2.3-8.5,0.4-12.1c-1.7-3.3-7.3-4-10-1.6c-1.3,1.1-1.9,2.7-2.3,4.3c-0.1,0.5-0.1,4.8-0.2,4.8
	c-3.8,2.2-6.1,6.7-7.9,10.5c-2.2,4.7-3.8,9.6-5,14.6c-3.3,14.5-5.2,29.4-7.3,44.1c-13.4-12.6-21.9,5.8-29.2,11.1
	c-7.3,5.3-7,5.5-3.8-2c3.2-7.6-13.4-19-21-18.7c-7.6,0.3-2,8.2-2,8.2c-1.1,4.5-3.3,8.6-6.2,12.2c-1.4,1.7-2.8,3.3-4.4,4.7
	c-1.1,0.9-2.2,2.2-3.6,2.7c-0.6,0.2-1.5,0.2-1.9-0.5c-0.4-0.9,0.8-1.8,1.3-2.3c0.9-0.8,1.6-1.7,2.3-2.7c2-3,2.9-6.7,2.3-10.3
	c-1.5-9.1-10.8-3.8-10.8-3.8s10.2-7.3,0-9.1c-10.2-1.8-23.7,17.2-26.9,24.2c-0.9,1.9-2.4,3.4-4.4,4.1c-0.2,0.1-0.6,0.1-1.1,0.2
	c-2.3,0.3-3.7-1-4.4-1.9c-0.2-0.3-0.4-0.6-0.6-0.9l0,0h0c-0.2-0.3-0.3-0.6-0.5-0.9c-1.8-3.1-3.9-6.1-5.9-9c-1.1-1.5-2-3.1-2.9-4.7
	c12.1-16,20.2-35.1,21.4-55.3c0.2-4.2,1-11.6-2.1-15c-3.8-4.3-11.4,4.1-13.8,6.6c-5.4,5.7-11,11.9-14.6,19c-4.8,9.6-6.4,20.5-8.1,31
	c-1,5.9-1.9,12.5,0.4,18.1c-3.3,3.5-6.9,6.8-10.6,9.8c-4.7,3.8-10.1,7.2-16.1,7.9c-2.4,0.3-5.2-0.1-6.3-2.3
	c-0.5-0.9-0.5-1.9-0.4-2.9c0.5-5.8,4.7-10.6,8.5-15c3.8-4.4,7.6-9.7,7.1-15.5c-0.2-2.2-1.1-4.5-3-5.6c-2.3-1.3-5.3-0.7-7.4,0.9
	c-2.1,1.6-3.5,3.9-4.8,6.2c-7,11.8-14.6,23.7-26.1,31.2c-1.2,0.8-2.8,1.5-4,0.7c-0.8-0.6-1-1.7-1.1-2.7c-0.3-7,3.4-13.5,5.5-20.2
	c0.7-2.3,1.2-4.8,0.2-7c-1.1-2.2-3.6-3.4-6-4c-1.6-0.4-3.6-0.5-4.4,0.9c-0.7,1.3,0,2.8,0.4,4.3c0.1,0.3,0.1,0.7,0.2,1
	c0.3,3.6-2.1,7.1-4.3,10.2c-2.9,4.1-5.6,8.4-6.7,13.3c-1.2,5.5-0.1,11.5,3.1,16.2c2.1,3.1,5.2,5.8,9,6.2c3.4,0.4,6.8-1.2,9.7-3.1
	c3.9-2.5,7.5-5.5,10.6-9c-0.5,2,1.3,3.7,2.9,4.9c3.5,2.5,7.3,4.8,11.6,5.3c6.7,0.8,13.2-2.7,18.8-6.6c3.2-2.2,6.2-4.6,9.2-7
	c3.8-3.2,7.4-6.5,10.8-10c1.9,1.8,3.7,3.4,4.2,2.9c-3.2,3.2-0.3,8.2,2.1,10.8c4.4,4.8,10.9,7.4,17.2,5c2.4-0.9,4.5-2.3,6.6-3.8
	c0.2-0.1,2.3-1.7,2.2-1.4c-0.3,1.8,5.5,5.5,5.5,5.5c8.8,5.3,15.8-2.6,15.8-2.6c0,0,3.6,1.6,3.9,1.8c1.5,0.5,3,0.9,4.5,1.1
	c6.2,0.7,13.9-4.5,13.3-11.3c-0.1-1.2,0.9-2,1.6-2.8c2-2.1,3.6-4.4,4.7-7c0.2-0.4,2.2-6,1.7-6c0,0,3.5,2,3.5,2s-9.1,22.2-0.9,26.6
	c8.2,4.4,16.9-7,16.9-7c-0.8,1,0.8,3.4,1.4,4.1c6.1,7,20.7,7.4,27.3,1.1c1.4-1.4,3.4-3.7,4.7-6.2c0.2,3.3,1.9,6.8,3.4,9.3
	c1.3,2.1,6,9.9,9.2,8.5c0.7-0.3,1.1-1.2,1.2-2c0.4-2.1-1.5-4.4-2.3-6.3c-1.1-2.6-1.8-5.2-2.4-7.9c-1.6-8.4-0.5-17.1,2.5-25.1
	C471.2,254.3,475.6,231.5,481.8,209.3z M321.8,262.2c-0.1-1-0.2-1.9-0.3-2.9c-0.7-10.5,3.3-21.7,8.7-30.5c0.8-1.4,3.6-4.2,3.9-0.8
	c0.4,4.7-1,9.3-2.5,13.7C329.1,248.8,325.8,255.7,321.8,262.2z M361,293.1c-1.6-2,3.8-8.6,3.8-8.6C364,289.8,362.6,295.2,361,293.1z
	 M436.5,295.6c-6.1,3.1-2-3.7-2-3.7c5.7-7.2,14.2-11.4,14.2-11.4S442.6,292.5,436.5,295.6z"/>
<path d="M249.4,251.3c-0.8,0.2-1.6,0.3-2.4,0.3c-2.4,0.1-3.8-1.4-3.9-3.8c-0.1-3.2,0.3-6.8,1.9-9.7c0.7-1.3,1.8-2.5,3.2-3
	c0.7-0.3,1.6-0.5,2.4-0.3c1.5,0.4,2.7,1.6,4.2,1.9c2.6,0.5,4.9-1.9,7.6-1.6c2.2,0.2,3.3,2.3,2.9,4.4c-0.5,2.4-1.5,4.8-3,6.7
	c-1.7,2.1-4.3,2.9-6.8,3.5C253.5,250.1,251.4,250.9,249.4,251.3z"/>
<path d="M419.6,166c-1.5,1.3-3.1,2.2-4.2,3.9c-1.6,2.4,0.3,4.2,1.9,6c1.5,1.7,2.2,3.6,3.4,5.5c2.3,3.8,9.1-2.5,11-4.2
	c4.1-3.7,8.1-7.7,13.2-10.1c5-2.4,10.6-2.9,15.9-1c1.6,0.5,3.5,0,4.9-0.9c0.8-0.5,1.5-1.3,1.7-2.2c0.5-1.7-0.7-3.7-2.3-4.3
	c-2.2-0.9-3.1,1.1-5,1.1c-1.6,0-2.9-1.9-4.8-1.4c0,0,33.9-43.6,76-75.7c0,0,11.7-11.3,6.2,4.2c-2.4,6.7-3.7,13.8-5.2,20.6
	c-2.8,12.8-5.3,25.7-7.7,38.6c-2.9,16.5-5.6,33-7.8,49.6c-2.4,17.8-4.4,35.6-5.7,53.5c-1.2,16.9-1.8,33.9-1.4,50.9
	c0.1,3.4,0.6,7.3,3.1,9.9c3.8,4.1,10.8,3.2,13.9-1c6.3-8.3,9.8-19,14.7-28.2c6.3-11.9,12.7-23.8,19.5-35.4
	c7.2-12.4,14.6-24.7,22.9-36.4c2.7-3.9,5.5-7.8,8.5-11.5c2.8-3.4,6.3-7.9,10.3-10c-1.3,3.8-3.5,7.4-5,11.2c-1.6,4.1-3,8.2-4.1,12.5
	c-1.2,4.8-2.2,9.6-2.6,14.5c-0.4,5.1-0.5,10.4,0.4,15.6c0.3,1.5,0.9,3.1,2.2,4c1.1,0.8,2.6,0.9,4,0.7c8.3-1.4,15.4-9.2,21.1-14.8
	c12.1-11.8,24.6-23.3,37.9-33.7c1.2-1,8.1-8,9.6-5.9c0.3,0.4,0.3,0.9,0.2,1.3c-0.2,6.4-3,12.7-4.6,18.9c-1.5,5.6-2.8,11.3-4.1,16.9
	c-5.2,23-9.9,46.2-12.1,69.7c-0.5,5.3-1.1,10.6-1.1,16c0,4.6-0.2,11.1,2.8,14.8c0.9,1.2,2.7,2.4,4.2,1.6c2.6-1.5,3.2-6.5,3.8-9
	c2.1-8.7,2.5-17.7,3.6-26.5c2-16.4,4.4-32.7,7.5-49c2.2-11.6,5.1-23,7.9-34.5c2.1-8.6,7.5-21.1,1.5-29.4c-0.5-0.7-1.1-1.3-1.7-1.8
	c-4.8-3.9-11.5-0.3-16.1,2.2c-9.8,5.4-18.8,12.7-27.2,20.2c-0.1,0.1-0.2,0.2-0.3,0.3c0,0-27.6,27.2-27.6,27.2
	c0.6-0.6,0.6-4.5,0.7-5.4c0.9-5.5,2.2-10.9,3.7-16.3c1.6-5.6,3.4-11.1,5.3-16.6c1.2-3.4,2.5-6.7,3.8-10c1.1-2.7,2.5-5.3,3.3-8
	c1.1-4.1-0.5-9.4-4.6-11.3c-4.8-2.2-10.2,2.6-13.3,5.7c-9.5,9.2-17.2,20.4-24.8,31.1c-11,15.7-21.3,31.9-30.9,48.5
	c-3.9,6.8-7.8,13.8-11.4,20.7c-3.6,6.9-6.4,14.3-10.6,20.9c-0.2,0.2-0.3,0.5-0.6,0.6c-0.4,0.1-0.9-0.2-1-0.6
	c-0.7-2.1,0.2-5.5,0.4-7.7c0.3-3.1,0.7-6.1,0.8-9.2c0.2-5.6,0.2-11.1,0.6-16.7c1.2-21.3,3.6-42.4,6.6-63.5
	c5.4-38,13.9-75.2,21-112.9c0.8-4.4,0.1-10.6-4.2-13.1c-7.2-4.1-16,3.8-21.6,7.7c-5.1,3.6-10,7.3-14.8,11.2
	c-22.6,18-43.3,38.2-62.8,59.4c-2.1,2.3-3.8,5.2-6,7.5c-1.9,2-4.2,3-6.6,4.2c-4.9,2.5-9.8,4.9-14.4,7.9
	C420.8,165.1,420.2,165.5,419.6,166z"/>
<path d="M715.7,206.4c2.2,0.5,4.2,1.7,6.5,1.3c2.5-0.4,4.7-2,7-2.8c5.7-2.1,6.1,10.3,1.5,12.1c-2,0.8-4,1.4-5.8,2.7
	c-2,1.4-3.1,3.9-5.2,5.1c-4,2.2-9.4-1.6-10.4-5.6C708.3,214.5,709,204.9,715.7,206.4z"/>
<path d="M1135.3,255.3c0.2,1.2-0.6,3-0.9,4.1c-1,3.5-2.4,6.9-4,10.1c-5.4,10.4-14.2,18.7-24.7,23.7c-8.4,4-17.6,6.1-26.8,7.1
	c-8.2,0.9-18.9,2.5-26-2.7c-10.4-7.6,14.6-22.7,4.4-28.3c-3.8-2.1-7.2-2.1-10.2,1.2c-3.2,3.4-6.2,7.1-9.2,10.8
	c-1.6,1.9-3.2,3.8-4.8,5.6c-1.3,1.5-2.1,3.2-3.7,4.5c-0.3,0.3-0.8,0.5-1.2,0.4c-1.5-0.5-0.9-4.9-1-6.1c-0.4-7.2-1-14.9,2.3-21.6
	c4.1-9.6-14.6-9.9-19.5-7c-1.3,0.8-1.1,1.9-1.9,2.8c-0.6,0.7-1.6,0.6-2.6,0.4c-4.3-0.5-5.3-5.5-9.7-6.3c-5.3-1-10,2.8-14.4,5.2
	c-4.7,2.7-9.7,6.3-13,10.7c-3.4,4.6-4.9,10.4-5.6,16c0,0-14.7,12.9-14.6-1.4c0,0,16.1-18.1,24.5-42.7c0,0,70.1-3.1,83.2-15.5
	c0,0,8.8-6.1-13.6-2.2c-22.3,3.9-65,3.1-65,3.1s11.6-22.8,10.3-30.7c-1.3-7.9-11.2-5.9-14.2,0c-3.1,5.9-14.9,22.1-18.8,32.4
	c0,0-29.8-0.2-27.8,5c1.1,2.9,1.2,6.7,3.6,8.9c3.9,3.7,10.5,0.9,15.1,1.3c1.9,0.2,2.5,1.1,1.7,2.7c-2.4,4.9-4.2,10.1-6,15.3
	c-1.8,5.1-3.7,10.3-4.4,15.7c0,0.4-0.1,0.7-0.3,1c-0.1,0.2-0.3,0.4-0.5,0.6c-4.7,4.6-9.4,9.2-14.7,13.2c-2.2,1.6-9.1,7.4-12,4.3
	c0.4,0.4,7-6.8,7.7-7.7c4.6-5.5,7.7-12.7,7.6-19.9c-0.2-7.7,1.3-17.6-7.3-21.6c-4.3-2-9.9,0.7-15,5.4c0.6-1,1.2-2.1,1.8-3.1
	c4.7-8.4,7.9-17.5,11.4-26.5c1.8-4.5,3.6-9.1,5.7-13.4c2-4.2,4.6-8.1,6-12.5c1.4-4.3,2.6-11.5-2.9-13.4c-2-0.7-4.2-0.4-6.2,0
	c-15.5,3.3-40.5,16.2-52.8,61.3c0,0-10.1,25.9-7,43c0,0-14.2,20-19.9,6.3c-2.7-6.5-0.4-14.2,2.1-20.3c3.4-8.2,8.7-15.3,12.6-23.2
	c2.7-5.4,5.3-10.9,7.8-16.4c6.2-13.4,12.4-26.9,17-41c1.3-3.9,2.6-8,2.9-12.1c1.3-17.1-15.5-2.6-22.3,7.4
	c-6.8,10.1-19.3,36.4-19.7,46.4c0,0-25.4,5.9-39.2,42.3c-2.2,3-4.7,5.9-7.2,8.7c-3.1,3.3-8.7,10.9-14,9.7c-4-0.9-4.6-6.5-5-9.8
	c-0.5-4.3-0.3-8.7,0.8-12.9c0.7-2.5,1.7-4.9,3.1-7.1c1.3-2.1,3.2-3.9,4.5-6c1.6-2.4,2.5-5.1,3.7-7.7c2.7-6.1,5.1-12.3,7.4-18.5
	c4.9-13.4,9.7-27.1,12.5-41.1c0.7-3.6,3.7-13.5-2-14.8c-2.1-0.5-4.3,1-5.8,2.3c-8,6.4-13,17.2-17.1,26.3
	c-6.2,13.3-10.9,27.3-15.1,41.3c0,0-24.4,11.1-32,28c-0.4,0.9-2.1,1.5-3,2c-1.4,0.8-2.8,1.6-4.3,2.4c-2.9,1.7-5.7,3.5-8.5,5.5
	c-3.1,2.1-6,4.4-8.9,6.8c-2.9,2.4-5.4,5.5-8.4,7.7c-2.2,1.6-3.9,0.6-4.4-1.9c-0.7-3.3,0.8-6.7,2.4-9.6c1.7-3,3.5-5.9,5.2-8.9
	c1.6-2.8,3.3-5.8,6.3-7.4c3.8-1.9-7.5-15.2-11.7-6.7c-1,2-1.9,4-2.9,6.1c0,0.1-0.1,0.2,0,0.3c-0.9,0.7-3.9,6.5-4.3,7.3
	c-1.6,2.8-3,5.7-4.3,8.6c-3.1,7.1-6.9,18.7,0.6,24.5c6.2,4.8,13.9-0.3,19.2-4.1c13.3-9.5,17.1-16.9,18.7-13.6c1.3,2.6-0.7,6.5,0,9.4
	c0.9,3.9,5.1,6,8.8,6.6c4.9,0.8,8.5-1.5,12-4.8c5.3-5,9.6-11.1,13.5-17.1c0.7,3.5,1.8,7,3.3,10.3c1.4,3.1,3.4,6.4,6.5,8
	c3.8,2,8.5,0.9,12.4-0.5c2.4-0.9,4.7-2.1,6.9-3.4c0.9-0.5,4.7-2.2,4.7-3.5c0,2.1,0.6,4.3,1.5,6.2c2.6,5.7,8.5,6.4,13.9,4.4
	c5.8-2.2,9.9-6.5,13.4-11.5c0.5-0.7,2.9-3.4,2.8-4.3c1.8,14.4,18,20.9,29.5,12.7c0.6-0.5,5.9-4.3,5.7-4.8c6.8,13.7,25.1,13.5,35.9,5
	c0,0,11.5,13.7,40.9-15.2c0,0,5.3,21.9,25.1,7.3c0,0,2.3,11.8,15.5,11.1c13.1-0.7,30.2-22.8,28.8-42.6c0,0,12-4.5,10.5,2.9
	c-1.2,6.2-3.1,12.2-3.2,18.5c-0.1,3.8,0.4,7.8,1.8,11.3c1.2,2.9,2.8,6,5.3,7.8c3.1,2.2,6.8,1.1,9.7-1c1.9-1.4,3.7-3,5.4-4.7
	c0.7-0.7,3.5-2.8,3.3-3.8c0,0,7.3,30.1,66.3,0.3C1105.1,300.1,1138.6,280.9,1135.3,255.3z M760.5,270.6
	c-1.5,4.4-13.6,19.6-19.1,24.1c-1.4,1.2-3.6,2.1-3.1-0.7c0.2-0.8,0.4-1.7,0.7-2.5c0.7-1.9,1.6-3.8,2.6-5.5c2.9-5,7-9.5,11.6-13
	C753.8,272.6,761.7,267.3,760.5,270.6z M823.6,280.9c-2.3,3-4.7,5.9-7.3,8.6c-2.2,2.3-4.3,4.6-6.8,6.5c-0.5,0.4-1.1,0.7-1.8,0.7
	c-3.1-0.4,0-8.5,0.7-10c1.7-3.6,4.1-6.8,6.5-9.9c4.1-5,8.4-10.1,14.3-13.1c-0.5,0.3,0,3.8,0,4.4
	C829.2,272.9,826.4,277.2,823.6,280.9z M888,296.2c0.3,0.5-1.7,2.7-2.1,3.1c-1.4,1.3-3.5,2-5.4,2.2c-3.1,0.2-6.6-1.2-8.5-3.8
	c-0.8-1-2.1-3.4-1.7-4.8c6.8-6.6,13-13.7,18.8-21.2c-0.5,1.2-0.9,2.4-1.1,3.5C884.9,287.6,885.1,291.4,888,296.2z M883.9,261.8
	c-3.2,4.4-6.6,8.5-10.5,12.3c-0.4,0.4-2.8,2.1-2.8,2.6c0.4-6,1.7-12,3.2-17.8c4-15.6,10.6-30.5,19.2-44.2c2.7-4.2,5.5-8.3,9.1-11.8
	c2.9-2.9,7.7-8.2,12.2-7.7c3.7,0.4-5.1,19.2-6.2,21.3C900.5,231.8,894,247.9,883.9,261.8z M899.7,290.7c-0.4,0.3-0.8,0.5-1.3,0.3
	c-0.9-0.3-1.3-2.3-1.4-3.1c-0.5-3.8,1.4-8.1,2.5-11.5c2-5.7,5.2-11.1,9.5-15.3c0.9-0.9,1.8-1.6,3-2c0.3-0.1,0.6-0.2,0.9-0.1
	c3.7,1.1-0.7,11.1-1.3,12.8C909.1,279,906,286.1,899.7,290.7z M985.3,295c-3.3,2.4-10.5,6.2-12.5,0.2c-0.1-0.3-0.7-3.2-0.5-3.2
	c0,0,7-1.9,13.1-10.4c6.1-8.5,10.5-9,10.5-9c1.3-0.1,1.6,3.4,1.7,4.2C998.3,284.5,990.9,290.9,985.3,295z"/>
</svg>
